HIERARCHY
ROOT Hips
{
	OFFSET	0.00	0.00	0.00
	CHANNELS 6 Xposition Yposition Zposition Zrotation Xrotation Yrotation
	JOINT Chest
	{
		OFFSET	 0.000000	 4.570000	 0.000000
		CHANNELS 3 Zrotation Xrotation Yrotation
		JOINT Neck
		{
			OFFSET	 0.000000	 17.620001	 0.000000
			CHANNELS 3 Zrotation Xrotation Yrotation
			JOINT Head
			{
				OFFSET	 0.000000	 5.190000	 0.000000
				CHANNELS 3 Zrotation Xrotation Yrotation
				End Site 
				{
					OFFSET	 0.000000	 4.140008	 0.000000
				}
			}
		}
		JOINT LeftCollar
		{
			OFFSET	 1.060000	 15.330000	 01.760000
			CHANNELS 3 Zrotation Xrotation Yrotation
			JOINT LeftShoulder
			{
				OFFSET	 5.00000	 0.000000	 0.000000
				CHANNELS 3 Zrotation Xrotation Yrotation
				JOINT LeftElbow
				{
					OFFSET	 0.000000	-11.90000	 0.000000
					CHANNELS 3 Zrotation Xrotation Yrotation
					JOINT LeftWrist
					{
						OFFSET	 0.000000	-9.520000	 0.000000
						CHANNELS 3 Zrotation Xrotation Yrotation
						End Site 
						{
							OFFSET	 0.000000	-7.0	 0.000000
						}
					}
				}
			}
		}
		JOINT RightCollar
		{
			OFFSET	-1.060000	 15.330000	 01.760000
			CHANNELS 3 Zrotation Xrotation Yrotation
			JOINT RightShoulder
			{
				OFFSET	-5.000000	 0.000000	 0.000000
				CHANNELS 3 Zrotation Xrotation Yrotation
				JOINT RightElbow
				{
					OFFSET	 0.000000	-11.900000	 0.000000
					CHANNELS 3 Zrotation Xrotation Yrotation
					JOINT RightWrist
					{
						OFFSET	 0.000000	-9.520000	 0.000000
						CHANNELS 3 Zrotation Xrotation Yrotation
						End Site 
						{
							OFFSET	 0.000000	-7.0	 0.000000
						}
					}
				}
			}
		}
	}
	JOINT LeftHip
	{
		OFFSET	 3.430000	 0.000000	 0.000000
		CHANNELS 3 Zrotation Xrotation Yrotation
		JOINT LeftKnee
		{
			OFFSET	 0.000000	-19.0	 0.000000
			CHANNELS 3 Zrotation Xrotation Yrotation
			JOINT LeftAnkle
			{
				OFFSET	 0.000000	-15.00000	 0.000000
				CHANNELS 3 Zrotation Xrotation Yrotation
				End Site 
				{
					OFFSET	 0.000000	-3.0	 0.000000
				}
			}
		}
	}
	JOINT RightHip
	{
		OFFSET	-3.430000	 0.000000	 0.000000
		CHANNELS 3 Zrotation Xrotation Yrotation
		JOINT RightKnee
		{
			OFFSET	 0.000000	-19.0	 0.000000
			CHANNELS 3 Zrotation Xrotation Yrotation
			JOINT RightAnkle
			{
				OFFSET	 0.000000	-15.00000	 0.000000
				CHANNELS 3 Zrotation Xrotation Yrotation
				End Site 
				{
					OFFSET	 0.000000	-3.0	 0.000000
				}
			}
		}
	}
}
MOTION
Frames: 18
Frame Time: 0.033333333
-6.965411	36.661173	26.093403	-45.779468	-27.489373	54.402657	-21.916114	12.545516	6.487140	22.438153	11.236929	0.689041	-354.676359	340.078197	-21.767281	14.737244	24.741738	0.357471	15.206079	21.955993	9.624096	101.696849	-71.372224	43.241254	0.091695	8.319858	57.627008	336.222937	-339.700214	-34.455564	-28.790660	-10.038120	66.493433	295.768985	322.257004	-0.502369	-139.678143	174.633029	102.948925	58.437731	-40.371908	68.436117	-336.331428	-310.946621	-14.373837	335.163165	-330.576830	-16.516346	348.967633	351.329458	-4.102547	-58.508601	111.227155	64.142687	-311.408342	-303.333884	-8.938373	
-7.261266	36.441647	25.152201	-42.452210	-21.713502	49.011739	-20.410983	10.951086	5.906108	18.893619	12.415721	0.144852	-354.580190	341.303177	-18.903530	11.252861	24.661692	3.453447	14.852693	21.336634	9.287067	100.134669	-73.694249	41.273053	1.275632	9.745634	57.757362	338.011381	-339.627705	-34.453075	-33.134671	-15.796569	62.989587	289.443793	323.850788	-8.881403	-141.990272	169.124440	102.724792	52.319777	-37.196338	61.551587	-336.737934	-309.679184	-14.505387	337.799482	-333.140746	-17.006846	352.736832	349.633330	-2.747496	-74.613961	111.919777	81.372310	-295.099326	-309.291284	-20.845240	
-7.452182	36.196144	24.174809	-39.473602	-16.428891	42.477919	-18.026872	8.905833	5.308074	-345.033307	-345.724632	-0.411142	-353.930995	342.178698	-14.869011	7.857627	24.505803	6.801106	15.914363	19.785328	9.982414	94.176674	-76.972057	35.625839	2.552240	11.362879	57.830773	338.147657	-339.257099	-32.741085	-36.547860	-20.587419	60.256269	282.936808	326.091035	-18.289578	-144.577738	164.224791	102.814766	47.260834	-34.545064	55.845917	-337.221866	-308.206158	-14.623807	335.675894	-334.622132	-14.259948	356.531193	349.526588	-1.162776	-90.416922	113.600564	98.600321	-268.899185	-321.959973	-30.684064	
-7.380801	35.900763	23.177053	-35.400791	-11.218069	34.819361	-16.260107	6.758308	4.823136	-349.274882	-343.112686	-0.816366	-352.975096	343.031270	-9.654628	3.512684	24.213273	10.975361	18.779396	17.966397	11.935056	81.441404	-80.171604	23.268617	3.232767	13.017941	57.899608	338.200632	-338.637109	-29.648474	-40.198708	-25.452920	57.367836	276.579296	328.437533	-26.644871	-146.054657	160.555818	102.831582	41.831168	-31.897942	49.874842	-337.747190	-305.569295	-15.011499	331.580021	-336.303643	-10.258676	358.790128	351.346670	-0.243836	-104.696504	114.727121	113.938829	-281.651257	-322.608568	-20.773173	
-6.980652	35.577764	22.267423	-29.923874	-6.486997	26.016873	-15.456921	4.817318	4.412992	-353.506266	-340.580325	-0.807738	-352.540614	343.845756	-4.189147	-1.802971	23.714491	16.011227	23.208671	16.550685	14.884237	61.300441	-82.270091	3.483882	2.541797	14.665809	58.084528	339.430121	-337.826283	-25.363538	-45.801492	-29.637986	53.507673	269.675860	330.904706	-33.646143	-147.151681	157.999278	102.852544	35.172089	-27.901824	42.774062	-341.452649	-303.257877	-12.882906	329.699014	-338.799913	-7.020149	358.819443	355.152724	-0.262440	-119.722476	116.501796	129.695877	-308.735115	-322.601437	-13.908065	
-6.387423	35.281731	21.490629	-23.964317	-2.801966	16.394337	-14.940536	3.294444	4.111448	-357.262624	-338.825403	-0.454202	7.779057	-15.754410	1.280588	-7.227971	23.121880	20.558614	28.485300	15.936141	18.307840	-317.774815	277.604097	-15.352019	1.653446	16.277122	58.251103	341.544174	-337.008027	-20.441470	-52.733963	-31.555821	49.430228	262.066046	333.754425	-39.021437	-148.990464	156.869770	103.043783	27.983136	-23.152444	35.669607	-347.749865	-302.888473	-8.335469	329.855808	-341.276540	-4.503194	357.405648	-359.820721	-0.609890	-313.014365	-300.108395	-36.397380	-308.042780	-326.368231	-18.875448	
-5.854538	35.050916	20.777576	-18.926015	-0.083709	6.448187	-13.768128	2.185184	4.037130	-0.399580	22.192770	0.018141	8.535458	-15.599815	6.251983	-11.652224	22.596898	23.893444	33.664960	15.671338	21.482848	-327.041388	279.398415	-23.345241	1.598319	17.776045	58.182678	343.367670	-336.285119	-14.897264	-58.100422	-30.327774	47.002915	254.571279	337.190092	-43.116114	-151.191397	155.732393	103.345499	22.508586	-19.886495	30.931481	-352.548073	-303.469859	-4.809757	331.467077	-342.750385	-2.526076	356.499528	-355.031693	-0.619196	-323.874693	-305.265078	-25.133910	-308.501932	-333.100776	-24.155930	
-5.448645	34.861401	20.045941	345.171769	-357.875046	-3.475194	-12.169706	1.654215	4.197929	-3.000630	22.571951	0.473827	9.510520	-15.353765	10.542939	-14.165352	22.195654	26.212418	37.833988	15.598436	23.878585	-329.659317	282.739061	-22.608388	1.418085	18.796919	58.097519	344.657237	-335.758922	-9.221057	-60.533424	-26.889281	46.631739	68.279603	-160.224882	133.526725	-153.472625	154.236992	103.694201	19.167189	-18.593419	28.442850	-355.228184	-303.817707	-2.881974	332.152254	-342.211319	-1.818855	356.231730	-351.156872	-0.456674	-332.376721	-311.136883	-16.693839	-307.557946	-341.438115	-30.533318	
-5.059248	34.675277	19.312208	349.201335	-356.225037	-13.573419	-10.969817	1.698890	4.414786	-5.253947	22.588960	0.871431	10.161141	-15.061188	14.485166	-14.801807	21.897111	27.912971	40.952485	16.813407	25.950183	-331.700888	285.936463	-21.504826	0.486680	19.772566	58.108482	345.250753	-335.460033	-3.868615	-60.108702	-22.848570	47.696531	63.876897	-161.517317	131.132989	-155.960590	152.499924	104.145294	16.606329	-18.520930	26.791252	-355.955271	-303.715937	-2.372239	331.758589	-340.621606	-2.705437	355.489179	-348.343763	-0.323442	-338.998508	-316.970492	-10.715844	-307.857190	-349.055742	-35.260475	
-4.627616	34.478737	18.627340	353.278356	-355.591796	-24.092409	-10.296374	2.304712	4.626734	-7.524596	22.577475	1.273177	10.334641	-15.114879	18.332676	-14.743222	21.621322	29.451802	43.439281	19.221654	28.085935	-333.073073	288.402544	-21.208635	0.256420	21.333853	57.831948	-14.920198	24.643873	0.975722	-57.737179	-19.727787	49.397358	62.021306	-160.793836	130.997219	-158.094723	151.019112	104.542914	14.392467	-19.110609	25.481675	-355.479562	-302.758099	-2.754278	334.405561	-340.643654	-3.984057	354.096422	-346.587285	-0.201266	-344.750592	-322.333803	-6.396848	-305.925776	-358.740732	-34.242992	
-4.154371	34.259868	17.985393	357.092471	-355.837109	-34.341412	-10.027855	3.423608	4.838154	-9.922002	22.392384	1.671560	10.386123	-15.411784	22.082621	-14.288788	21.384285	30.743927	45.523640	21.537220	30.053832	-332.099907	290.610143	-19.758741	0.436325	23.042653	57.332156	-15.391534	24.619239	4.788203	-54.277541	-17.338037	51.455215	62.351388	-159.381545	132.917472	-159.337954	150.189831	104.669764	12.505107	-20.099313	24.405500	-355.675234	-301.576121	-2.664900	334.364716	-341.625999	-4.335322	351.966277	-345.841920	-0.109526	-349.228191	-327.930951	-3.503246	-301.702998	351.854617	-28.841815	
-3.640630	33.998384	17.339341	-359.433122	-355.812384	-43.620811	-9.585672	4.263357	5.019787	-12.102939	21.954152	1.968481	10.420170	-15.449780	25.324761	-12.958939	21.200710	31.765259	47.562492	22.923033	31.638774	-329.821438	292.376648	-17.827331	-0.721545	24.059218	57.187752	-16.705432	24.535267	7.230228	-49.362752	-14.782588	54.287431	243.922496	338.361961	-44.445365	-160.507447	149.800798	104.718217	11.464234	-22.410492	23.892325	-356.180039	-300.473291	-2.333816	336.211381	-343.644238	-2.763239	349.693354	-347.580258	-0.405043	-351.970102	-332.885871	-1.953620	-302.628926	347.180227	-25.497524	
-3.144044	33.755608	16.689132	-176.686334	174.828318	127.924057	-7.996861	4.498672	5.254974	-14.067150	21.899664	2.295728	10.141218	-15.447654	27.857745	-11.486424	20.931160	33.171052	50.374068	22.563743	32.721151	-326.055764	294.064142	-14.483571	-2.375650	24.356917	57.249452	-19.572332	24.391687	9.364158	-42.708656	-11.731230	58.218837	246.664243	338.402888	-41.126702	-162.071369	149.707880	104.824522	12.358661	-25.617252	24.611129	-353.889358	-299.508131	-4.110921	340.336460	-344.033204	-1.809626	349.021482	-352.225469	-1.291929	-354.172592	-335.221195	-1.168866	-304.048130	346.868224	-21.954924	
-2.742962	33.664866	16.176925	-175.091772	174.175461	120.141043	-5.897571	5.250557	5.583631	-16.376538	22.752555	2.949692	9.765230	-15.677936	30.079841	-11.221474	20.575517	34.866974	54.430565	20.503309	33.429021	-320.120740	296.739391	-8.107839	-2.794251	24.264815	57.023516	-22.742991	24.199612	11.678424	-36.054136	-8.169391	62.459196	250.519174	339.496565	-37.012821	-163.657871	149.698836	104.986445	13.411947	-26.714945	25.376602	-347.089304	-300.301881	-9.201152	344.142705	-342.587253	-5.657606	349.182128	-357.159024	-2.147782	-355.977019	-334.947987	-0.776739	-307.468716	350.849432	-18.082328	
-2.457482	33.769927	15.953936	-174.588633	175.282170	113.456139	-4.922376	7.203836	5.804555	-19.030430	24.379885	4.022920	9.604851	-15.746309	32.041731	-12.361472	20.359038	35.813580	59.389046	17.600750	33.988164	47.438760	-59.427698	0.541134	-2.406669	24.073855	56.666530	-24.174983	24.065609	13.295479	-32.094006	-3.445224	65.509476	254.299165	340.470796	-34.394861	-165.789068	149.415875	105.389529	11.528048	-24.532937	24.017596	-339.377528	-303.693042	-14.313833	345.495056	-341.301538	-12.186583	347.877098	359.653873	-3.033444	-356.511167	-333.344477	-0.722507	-314.813136	356.468546	-14.259816	
-2.260162	33.976469	15.937263	-174.673013	177.201344	108.094475	-4.994573	9.503874	5.914211	-21.119048	26.227202	5.203530	9.098936	-15.714986	32.978041	-13.424108	20.460687	35.303143	64.568215	14.580131	34.462654	54.516267	-55.552495	7.921093	-2.060531	24.265469	56.408960	-23.516209	24.088323	13.220044	-31.283772	2.102418	66.822314	256.901904	340.185813	-34.275719	-168.136932	150.076546	105.569552	7.938160	-21.282662	21.678661	-334.024655	-307.989777	-16.930075	346.036389	-340.430689	-16.869990	345.947460	357.727705	-3.979826	-356.574770	-331.926967	-0.762113	-319.187408	-359.010989	-10.700837	
-2.102924	34.143385	15.904569	-174.503351	177.999506	103.918498	-4.790288	10.902238	5.983935	-21.792942	27.876272	6.020509	7.853597	-15.814370	32.792618	-13.118868	20.817473	33.643206	69.624829	11.542965	34.822721	59.768402	-52.982715	12.415761	-1.727848	24.842391	56.222533	-21.756587	24.260616	11.010985	-32.115026	7.155078	66.945469	258.100192	338.364912	-34.543910	-169.966029	152.289035	105.170697	5.886769	-19.095006	20.477313	-331.116825	-312.064122	-17.435041	348.187543	-339.916567	-20.320082	346.114007	355.693375	-4.368155	-358.030720	-331.493332	-0.361069	-320.672482	-356.420271	-9.514099	
-1.968912	34.216427	15.805475	-173.800333	177.607344	101.254738	-4.112023	11.281852	6.010219	-20.683564	29.537009	6.280599	6.314809	-15.945373	31.601106	-11.125360	21.376331	30.962275	74.389583	8.020668	34.980714	63.376511	-52.180339	15.750269	-1.363964	25.088461	56.175613	-19.225696	24.486825	6.785011	-33.903969	11.428891	66.173255	258.043775	335.179175	-35.505791	-171.259421	154.530580	104.696934	5.694617	-18.046143	20.372702	-329.862037	-315.929790	-16.617691	350.161058	-339.152897	-24.229108	347.724538	353.641804	-4.198835	0.159497	28.274419	0.151301	-321.095462	-355.397983	-9.684823	
